<svg width="21" height="20" viewBox="0 0 21 20" fill="none" xmlns="http://www.w3.org/2000/svg">
<path d="M10.9978 15.1277C8.15943 15.1277 5.87002 12.8383 5.87002 10C5.87002 7.16166 8.15943 4.87225 10.9978 4.87225C13.8361 4.87225 16.1255 7.16166 16.1255 10C16.1255 12.8383 13.8361 15.1277 10.9978 15.1277ZM10.9978 6.6663C9.16356 6.6663 7.66406 8.16133 7.66406 10C7.66406 11.8387 9.15909 13.3337 10.9978 13.3337C12.8364 13.3337 14.3315 11.8387 14.3315 10C14.3315 8.16133 12.832 6.6663 10.9978 6.6663ZM17.5313 15.3375C17.5313 14.6725 16.9958 14.1415 16.3353 14.1415C15.6703 14.1415 15.1392 14.677 15.1392 15.3375C15.1392 15.998 15.6748 16.5335 16.3353 16.5335C16.9958 16.5335 17.5313 15.998 17.5313 15.3375ZM20.9275 14.1236C20.8516 15.7258 20.4857 17.1449 19.3119 18.3142C18.1427 19.4834 16.7235 19.8494 15.1214 19.9297C13.4702 20.0234 8.52092 20.0234 6.86968 19.9297C5.272 19.8538 3.85284 19.4879 2.67912 18.3186C1.50541 17.1494 1.14392 15.7302 1.06359 14.1281C0.969872 12.4768 0.969872 7.52761 1.06359 5.87638C1.13946 4.27424 1.50541 2.85507 2.67912 1.68582C3.85284 0.516567 5.26754 0.15062 6.86968 0.0702896C8.52092 -0.0234299 13.4702 -0.0234299 15.1214 0.0702896C16.7235 0.146156 18.1427 0.512104 19.3119 1.68582C20.4812 2.85507 20.8471 4.27424 20.9275 5.87638C21.0212 7.52761 21.0212 12.4724 20.9275 14.1236ZM18.7943 4.10465C18.4462 3.22995 17.7723 2.55606 16.8931 2.2035C15.5766 1.68136 12.4526 1.80185 10.9978 1.80185C9.54289 1.80185 6.41448 1.68582 5.10242 2.2035C4.22771 2.5516 3.55383 3.22548 3.20127 4.10465C2.67912 5.42118 2.79962 8.54513 2.79962 10C2.79962 11.4549 2.68358 14.5833 3.20127 15.8953C3.54937 16.7701 4.22325 17.4439 5.10242 17.7965C6.41894 18.3186 9.54289 18.1981 10.9978 18.1981C12.4526 18.1981 15.5811 18.3142 16.8931 17.7965C17.7678 17.4484 18.4417 16.7745 18.7943 15.8953C19.3164 14.5788 19.1959 11.4549 19.1959 10C19.1959 8.54513 19.3164 5.41671 18.7943 4.10465Z" fill="#18B5DC"/>
</svg>
