<svg width="0" height="0" class="hidden">
  <symbol xmlns="http://www.w3.org/2000/svg" viewBox="0 0 12 20" id="facebook">
    <path d="M10.7725 11.25L11.3429 7.63047H7.77636V5.28164C7.77636 4.29141 8.27457 3.32617 9.8719 3.32617H11.4933V0.244531C11.4933 0.244531 10.0219 0 8.61514 0C5.67801 0 3.75816 1.73359 3.75816 4.87187V7.63047H0.493301V11.25H3.75816V20H7.77636V11.25H10.7725Z"></path>
  </symbol>
  <symbol xmlns="http://www.w3.org/2000/svg" viewBox="0 0 21 20" id="instagram">
    <path d="M10.9978 15.1277C8.15943 15.1277 5.87002 12.8383 5.87002 10C5.87002 7.16166 8.15943 4.87225 10.9978 4.87225C13.8361 4.87225 16.1255 7.16166 16.1255 10C16.1255 12.8383 13.8361 15.1277 10.9978 15.1277ZM10.9978 6.6663C9.16356 6.6663 7.66406 8.16133 7.66406 10C7.66406 11.8387 9.15909 13.3337 10.9978 13.3337C12.8364 13.3337 14.3315 11.8387 14.3315 10C14.3315 8.16133 12.832 6.6663 10.9978 6.6663ZM17.5313 15.3375C17.5313 14.6725 16.9958 14.1415 16.3353 14.1415C15.6703 14.1415 15.1392 14.677 15.1392 15.3375C15.1392 15.998 15.6748 16.5335 16.3353 16.5335C16.9958 16.5335 17.5313 15.998 17.5313 15.3375ZM20.9275 14.1236C20.8516 15.7258 20.4857 17.1449 19.3119 18.3142C18.1427 19.4834 16.7235 19.8494 15.1214 19.9297C13.4702 20.0234 8.52092 20.0234 6.86968 19.9297C5.272 19.8538 3.85284 19.4879 2.67912 18.3186C1.50541 17.1494 1.14392 15.7302 1.06359 14.1281C0.969872 12.4768 0.969872 7.52761 1.06359 5.87638C1.13946 4.27424 1.50541 2.85507 2.67912 1.68582C3.85284 0.516567 5.26754 0.15062 6.86968 0.0702896C8.52092 -0.0234299 13.4702 -0.0234299 15.1214 0.0702896C16.7235 0.146156 18.1427 0.512104 19.3119 1.68582C20.4812 2.85507 20.8471 4.27424 20.9275 5.87638C21.0212 7.52761 21.0212 12.4724 20.9275 14.1236ZM18.7943 4.10465C18.4462 3.22995 17.7723 2.55606 16.8931 2.2035C15.5766 1.68136 12.4526 1.80185 10.9978 1.80185C9.54289 1.80185 6.41448 1.68582 5.10242 2.2035C4.22771 2.5516 3.55383 3.22548 3.20127 4.10465C2.67912 5.42118 2.79962 8.54513 2.79962 10C2.79962 11.4549 2.68358 14.5833 3.20127 15.8953C3.54937 16.7701 4.22325 17.4439 5.10242 17.7965C6.41894 18.3186 9.54289 18.1981 10.9978 18.1981C12.4526 18.1981 15.5811 18.3142 16.8931 17.7965C17.7678 17.4484 18.4417 16.7745 18.7943 15.8953C19.3164 14.5788 19.1959 11.4549 19.1959 10C19.1959 8.54513 19.3164 5.41671 18.7943 4.10465Z"></path>
  </symbol>
  <symbol xmlns="http://www.w3.org/2000/svg" viewBox="0 0 20 20" id="linkedin">
    <path d="M4.47667 20H0.330145V6.64702H4.47667V20ZM2.40117 4.82555C1.07525 4.82555 -0.000219345 3.72732 -0.000219345 2.40139C-0.000219336 1.7645 0.252784 1.1537 0.703132 0.703352C1.15348 0.253003 1.76428 0 2.40117 0C3.03806 0 3.64887 0.253003 4.09921 0.703352C4.54956 1.1537 4.80257 1.7645 4.80257 2.40139C4.80257 3.72732 3.72665 4.82555 2.40117 4.82555ZM19.9958 20H15.8582V13.4999C15.8582 11.9507 15.8269 9.96406 13.7023 9.96406C11.5465 9.96406 11.2161 11.6471 11.2161 13.3882V20H7.07405V6.64702H11.0509V8.46849H11.109C11.6625 7.41936 13.0148 6.31219 15.0323 6.31219C19.2288 6.31219 20.0002 9.07565 20.0002 12.665V20H19.9958Z"></path>
  </symbol>
  <symbol xmlns="http://www.w3.org/2000/svg" viewBox="0 0 20 16" id="telegram">
    <path d="M19.5498 1.45659L16.6524 15.0342C16.4338 15.9924 15.8637 16.2309 15.0536 15.7795L10.639 12.5469L8.50877 14.5827C8.27304 14.817 8.07588 15.0129 7.62155 15.0129L7.93872 10.5452L16.1209 3.19851C16.4766 2.88334 16.0437 2.70873 15.568 3.02389L5.45279 9.35271L1.09811 7.99836C0.150885 7.70449 0.133741 7.05713 1.29527 6.60568L18.3282 0.0852048C19.1169 -0.208664 19.8069 0.259822 19.5498 1.45659Z"></path>
  </symbol>
  <symbol xmlns="http://www.w3.org/2000/svg" viewBox="0 0 21 18" id="twitter">
    <path d="M18.9375 4.92638C18.9502 5.10403 18.9502 5.28173 18.9502 5.45938C18.9502 10.8781 14.8258 17.1218 7.28776 17.1218C4.96542 17.1218 2.80807 16.4492 0.993347 15.2817C1.32331 15.3198 1.64053 15.3325 1.98319 15.3325C3.8994 15.3325 5.66339 14.6853 7.07202 13.5812C5.26999 13.5431 3.75983 12.3629 3.23952 10.7386C3.49335 10.7766 3.74714 10.802 4.01366 10.802C4.38167 10.802 4.74971 10.7512 5.09233 10.6624C3.21417 10.2817 1.8055 8.63196 1.8055 6.63958V6.58884C2.35116 6.89341 2.98573 7.08376 3.65827 7.10911C2.55421 6.37306 1.83089 5.11673 1.83089 3.6954C1.83089 2.93399 2.03389 2.23603 2.38925 1.62688C4.40702 4.11419 7.44003 5.73853 10.841 5.91622C10.7776 5.61165 10.7395 5.29442 10.7395 4.97716C10.7395 2.71825 12.5669 0.878174 14.8385 0.878174C16.0187 0.878174 17.0846 1.3731 17.8334 2.17259C18.7598 1.99493 19.6481 1.65228 20.4349 1.18274C20.1303 2.13454 19.4831 2.93403 18.6329 3.44161C19.4578 3.35282 20.2573 3.12435 20.9933 2.80712C20.435 3.61927 19.737 4.34259 18.9375 4.92638Z"></path>
  </symbol>
</svg>