<svg width="21" height="18" viewBox="0 0 21 18" fill="none" xmlns="http://www.w3.org/2000/svg">
<path d="M18.9375 4.92638C18.9502 5.10403 18.9502 5.28173 18.9502 5.45938C18.9502 10.8781 14.8258 17.1218 7.28776 17.1218C4.96542 17.1218 2.80807 16.4492 0.993347 15.2817C1.32331 15.3198 1.64053 15.3325 1.98319 15.3325C3.8994 15.3325 5.66339 14.6853 7.07202 13.5812C5.26999 13.5431 3.75983 12.3629 3.23952 10.7386C3.49335 10.7766 3.74714 10.802 4.01366 10.802C4.38167 10.802 4.74971 10.7512 5.09233 10.6624C3.21417 10.2817 1.8055 8.63196 1.8055 6.63958V6.58884C2.35116 6.89341 2.98573 7.08376 3.65827 7.10911C2.55421 6.37306 1.83089 5.11673 1.83089 3.6954C1.83089 2.93399 2.03389 2.23603 2.38925 1.62688C4.40702 4.11419 7.44003 5.73853 10.841 5.91622C10.7776 5.61165 10.7395 5.29442 10.7395 4.97716C10.7395 2.71825 12.5669 0.878174 14.8385 0.878174C16.0187 0.878174 17.0846 1.3731 17.8334 2.17259C18.7598 1.99493 19.6481 1.65228 20.4349 1.18274C20.1303 2.13454 19.4831 2.93403 18.6329 3.44161C19.4578 3.35282 20.2573 3.12435 20.9933 2.80712C20.435 3.61927 19.737 4.34259 18.9375 4.92638Z" fill="#18B5DC"/>
</svg>
